<svg id="17e31a14-3621-4fe2-a867-85f7e044f4b8" data-name="Layer 1" xmlns="http://www.w3.org/2000/svg" viewBox="0 0 357.679 54.536"><defs><style>.ad92bc68-78ba-4f4b-9efd-8dd914851d84{fill:#3d474f;}.\31 cb2fa6b-8f71-4efc-8301-d8bc07a94bb0{fill:#838993;}</style></defs><title>BD_logo_header</title><g id="296e2393-2cfd-481c-baf1-64d4a1720c90" data-name="&lt;Group&gt;"><path class="ad92bc68-78ba-4f4b-9efd-8dd914851d84" d="M14.616,14.643q5.194.382,7.713,2.586a7.02,7.02,0,0,1,2.519,5.509A7.563,7.563,0,0,1,23.139,27.7a7.9,7.9,0,0,1-4.374,2.721,31.741,31.741,0,0,1-7.14.641L0,31.056V30.022l.83,0a5.275,5.275,0,0,0,2.709-.5,2.255,2.255,0,0,0,.956-1.54,34.456,34.456,0,0,0,.2-4.868V8.279a32.275,32.275,0,0,0-.213-4.79,2.076,2.076,0,0,0-.9-1.484,7.008,7.008,0,0,0-3-.4H0V.566L5.015.432l5.711-.18q12.5,0,12.5,7.2a5.909,5.909,0,0,1-2.147,4.767A12.891,12.891,0,0,1,14.616,14.643Zm-5.509-.427q.562.023.945.022,4.857,0,6.633-1.529t1.776-4.947a7.946,7.946,0,0,0-.7-3.688,4.729,4.729,0,0,0-2.091-2.012,11.415,11.415,0,0,0-4.767-.708q-.877,0-1.8.067Zm0,1.1v6.791q0,4.34.158,5.509a2.764,2.764,0,0,0,.843,1.776A4.282,4.282,0,0,0,12.817,30a7.221,7.221,0,0,0,5.4-1.844q1.8-1.844,1.8-5.532,0-3.777-2.035-5.565t-7.162-1.788Q10.007,15.272,9.107,15.317Z"/><path class="ad92bc68-78ba-4f4b-9efd-8dd914851d84" d="M52.557,31.054l-24.874,0V30.024h.9a5.276,5.276,0,0,0,2.709-.5,2.294,2.294,0,0,0,.967-1.54,32.684,32.684,0,0,0,.213-4.868V8.167a31.053,31.053,0,0,0-.213-4.7,2.06,2.06,0,0,0-.9-1.461,7.008,7.008,0,0,0-3-.4h-.675V.566H42.322V1.6H40.973a7.42,7.42,0,0,0-2.946.371,1.958,1.958,0,0,0-.933,1.383,28.587,28.587,0,0,0-.236,4.812V24.132a27.226,27.226,0,0,0,.18,4.138,1.92,1.92,0,0,0,.978,1.293,8.091,8.091,0,0,0,3.429.461l2.59,0a10.79,10.79,0,0,0,3.958-.619,7.084,7.084,0,0,0,2.957-2.541A16.955,16.955,0,0,0,53.309,19.6h1.079Z"/><path class="ad92bc68-78ba-4f4b-9efd-8dd914851d84" d="M57.208,1.6V.566H71.149V1.6H70.5a7.42,7.42,0,0,0-2.946.371,1.958,1.958,0,0,0-.933,1.383,28.587,28.587,0,0,0-.236,4.812V23.121a40.265,40.265,0,0,0,.168,4.711,2.392,2.392,0,0,0,.9,1.652,5.059,5.059,0,0,0,2.8.54h.9v1.034H57.208V30.024h.9a5.276,5.276,0,0,0,2.709-.5,2.255,2.255,0,0,0,.956-1.54,34.347,34.347,0,0,0,.2-4.868V8.167a32.632,32.632,0,0,0-.2-4.7,2.01,2.01,0,0,0-.9-1.461,7.092,7.092,0,0,0-3.013-.4Z"/><path class="ad92bc68-78ba-4f4b-9efd-8dd914851d84" d="M101.555,31.755,79.991,3.175v21.16a14.443,14.443,0,0,0,.258,3.463,2.93,2.93,0,0,0,1.473,1.529,7.5,7.5,0,0,0,3.643.7v1.034H73.987V30.024a8.188,8.188,0,0,0,3.328-.8,2.6,2.6,0,0,0,1.36-1.383,16.955,16.955,0,0,0,.213-3.508V8.167a21.578,21.578,0,0,0-.326-4.7,2.208,2.208,0,0,0-1.034-1.529A8.9,8.9,0,0,0,74.437,1.6h-.454V.566h9.38L101.42,24.425V6.188A6.774,6.774,0,0,0,101,3.355a2.923,2.923,0,0,0-1.7-1.282A8.933,8.933,0,0,0,96.226,1.6V.566h11.063V1.6a8.051,8.051,0,0,0-3.047.742,2.764,2.764,0,0,0-1.417,1.406,8.873,8.873,0,0,0-.3,2.777v25.23Z"/><path class="ad92bc68-78ba-4f4b-9efd-8dd914851d84" d="M110.132.57s12.15-.318,13.6-.318q6.79,0,10.591,2.068a13.433,13.433,0,0,1,5.655,5.61,17.363,17.363,0,0,1,1.855,8.174,17.779,17.779,0,0,1-1.012,6.128,12.9,12.9,0,0,1-2.777,4.609,11.906,11.906,0,0,1-4.093,2.789,16.568,16.568,0,0,1-4.418,1.191,55.866,55.866,0,0,1-5.891.236H110.132V30.024h1.259a5.276,5.276,0,0,0,2.709-.5,2.294,2.294,0,0,0,.967-1.54,32.684,32.684,0,0,0,.213-4.868V8.414a35.5,35.5,0,0,0-.213-4.955,2.031,2.031,0,0,0-.9-1.462,7.2,7.2,0,0,0-3-.394h-1.035Zm9.534.874V21.816q0,4.52.169,5.824a2.375,2.375,0,0,0,1.012,1.833A7.743,7.743,0,0,0,124.41,30a16.828,16.828,0,0,0,6.543-1.091,9.018,9.018,0,0,0,4.284-4.295,17.184,17.184,0,0,0,1.72-8.174,22.017,22.017,0,0,0-1-6.9A12.486,12.486,0,0,0,133.09,4.6a9.718,9.718,0,0,0-4.137-2.586,20.573,20.573,0,0,0-5.824-.686Q121.42,1.331,119.666,1.443Z"/><path class="ad92bc68-78ba-4f4b-9efd-8dd914851d84" d="M144.674,31.062V19.6s1.125,0,1.125,0c.134,4.79,2.845,11,9.062,10.919a6.7,6.7,0,0,0,4.98-1.833,5.777,5.777,0,0,0,1.765-4.1,5.222,5.222,0,0,0-1.551-3.845,19.2,19.2,0,0,0-5.667-3.283,41.539,41.539,0,0,1-5.532-2.754,8.4,8.4,0,0,1-2.912-3.069A8.181,8.181,0,0,1,144.9,7.609a7.216,7.216,0,0,1,2.26-5.431,7.929,7.929,0,0,1,5.723-2.17,10.464,10.464,0,0,1,3.643.629,9.337,9.337,0,0,1,3.508,2.608A4.818,4.818,0,0,0,161.2.57h.99V8.553h-.99a10.71,10.71,0,0,0-3.024-5.487,7.189,7.189,0,0,0-5.025-2,5,5,0,0,0-3.991,1.473,4.835,4.835,0,0,0-1.271,3.227,4.662,4.662,0,0,0,1.6,3.576,21.736,21.736,0,0,0,5.689,3.328A59.131,59.131,0,0,1,160.9,15.49a7.983,7.983,0,0,1,2.867,2.957,8.636,8.636,0,0,1,1.08,4.362,8.335,8.335,0,0,1-2.608,6.364,9.768,9.768,0,0,1-6.971,2.451,10.641,10.641,0,0,1-8.365-3.845,9.447,9.447,0,0,0-1.1,3.283Z"/><path class="ad92bc68-78ba-4f4b-9efd-8dd914851d84" d="M180.438.565s12.15-.318,13.6-.318q6.79,0,10.591,2.068a13.433,13.433,0,0,1,5.655,5.61,17.363,17.363,0,0,1,1.855,8.174,17.779,17.779,0,0,1-1.012,6.128,12.9,12.9,0,0,1-2.777,4.609,11.906,11.906,0,0,1-4.093,2.789,16.568,16.568,0,0,1-4.418,1.191,55.866,55.866,0,0,1-5.891.236H180.438V30.02H181.7a5.276,5.276,0,0,0,2.709-.5,2.294,2.294,0,0,0,.967-1.54,32.684,32.684,0,0,0,.213-4.868V8.41a35.5,35.5,0,0,0-.213-4.955,2.031,2.031,0,0,0-.9-1.462,7.2,7.2,0,0,0-3-.394h-1.035Zm9.534.874V21.812q0,4.52.169,5.824a2.375,2.375,0,0,0,1.012,1.833,7.743,7.743,0,0,0,3.564.529,16.828,16.828,0,0,0,6.543-1.091,9.018,9.018,0,0,0,4.284-4.295,17.184,17.184,0,0,0,1.72-8.174,22.017,22.017,0,0,0-1-6.9A12.486,12.486,0,0,0,203.4,4.6a9.718,9.718,0,0,0-4.137-2.586,20.573,20.573,0,0,0-5.824-.686Q191.727,1.327,189.972,1.439Z"/><path class="ad92bc68-78ba-4f4b-9efd-8dd914851d84" d="M214.977,1.6V.562h13.941V1.6h-.652a7.42,7.42,0,0,0-2.946.371,1.958,1.958,0,0,0-.933,1.383,28.587,28.587,0,0,0-.236,4.812V23.116a40.265,40.265,0,0,0,.168,4.711,2.392,2.392,0,0,0,.9,1.652,5.059,5.059,0,0,0,2.8.54h.9v1.034H214.977V30.02h.9a5.276,5.276,0,0,0,2.709-.5,2.255,2.255,0,0,0,.956-1.54,34.347,34.347,0,0,0,.2-4.868V8.163a32.632,32.632,0,0,0-.2-4.7,2.01,2.01,0,0,0-.9-1.461,7.092,7.092,0,0,0-3.013-.4Z"/><path class="ad92bc68-78ba-4f4b-9efd-8dd914851d84" d="M264.066,31.054h-8.208q-2.182-1.529-6.679-8.005-1.439-2.068-2.991-3.969a15.552,15.552,0,0,0-2.136-2.316,3.174,3.174,0,0,0-1.821-.416h-1.214v6.769a40.111,40.111,0,0,0,.169,4.711,2.391,2.391,0,0,0,.9,1.652,5.059,5.059,0,0,0,2.8.54h1.462v1.034H231.753V30.02h.989a5.276,5.276,0,0,0,2.709-.5,2.255,2.255,0,0,0,.956-1.54,34.456,34.456,0,0,0,.2-4.868V8.163a32.735,32.735,0,0,0-.2-4.7,2.012,2.012,0,0,0-.9-1.461,7.092,7.092,0,0,0-3.013-.4h-.74V.562L236.34.337q4.362-.2,6.926-.2a25.612,25.612,0,0,1,7.095.81A9.487,9.487,0,0,1,254.779,3.6a6.306,6.306,0,0,1,1.687,4.408,6.815,6.815,0,0,1-2.2,5.1,11.006,11.006,0,0,1-6.476,2.631q1.911.923,6.161,6.656a30.989,30.989,0,0,0,5.442,6.094,8.221,8.221,0,0,0,4.677,1.529ZM241.017,15.313q1.687-.045,3.485-.135a12.983,12.983,0,0,0,3.126-.495,5.344,5.344,0,0,0,2.147-1.181,5.314,5.314,0,0,0,1.293-2.035,8.9,8.9,0,0,0,.472-3.1,7.8,7.8,0,0,0-1.608-5.149q-1.608-1.934-7-1.934-.833,0-1.912.09Z"/><path class="ad92bc68-78ba-4f4b-9efd-8dd914851d84" d="M291.872,19.6h1.079l-1.831,11.45H266.9V30.02h.63a4.722,4.722,0,0,0,2.935-.607,2.73,2.73,0,0,0,.843-1.54,35.715,35.715,0,0,0,.18-4.756V8.163a34.034,34.034,0,0,0-.191-4.587,2.152,2.152,0,0,0-.877-1.54,5.886,5.886,0,0,0-2.747-.438H266.9V.562h21.385l1.789,7.979h-1.057a12.008,12.008,0,0,0-1.8-4.909,4.468,4.468,0,0,0-2.485-1.687A21.846,21.846,0,0,0,280.1,1.6h-4.228V14.214h3.238a8.759,8.759,0,0,0,3.114-.382,2,2,0,0,0,1.169-1.158,10.537,10.537,0,0,0,.281-3.024h1.057V19.6h-1.057a6.2,6.2,0,0,0-.427-2.927A2.064,2.064,0,0,0,282,15.552a10.373,10.373,0,0,0-2.777-.258h-3.351v7.4q0,5.419.7,6.375t3.755.956H282.6a10.791,10.791,0,0,0,3.958-.619,7.084,7.084,0,0,0,2.957-2.541A16.955,16.955,0,0,0,291.872,19.6Z"/><path class="ad92bc68-78ba-4f4b-9efd-8dd914851d84" d="M322.518,19.608h.967V31.054h-.967a11.92,11.92,0,0,0-1.461-3.98,13.118,13.118,0,0,1-10.276,4.542,14.646,14.646,0,0,1-10.8-4.182q-4.194-4.183-4.194-11.063a19.264,19.264,0,0,1,1.934-8.511,13.07,13.07,0,0,1,5.4-5.925A15.327,15.327,0,0,1,310.713,0a13.528,13.528,0,0,1,6.195,1.405,12.43,12.43,0,0,1,4.149,3.114A11.139,11.139,0,0,0,322.226.562h.989l.27,11.558h-.967q-1.011-6.161-4.126-8.567a11.2,11.2,0,0,0-7.027-2.406,8.926,8.926,0,0,0-7.612,3.89q-2.822,3.89-2.822,11.13,0,6.859,3.081,10.513a9.631,9.631,0,0,0,7.667,3.654,11.846,11.846,0,0,0,5.015-1.191,8.741,8.741,0,0,0,4.059-4.037A15.136,15.136,0,0,0,322.518,19.608Z"/><path class="ad92bc68-78ba-4f4b-9efd-8dd914851d84" d="M328.779,8.555h-1.034l.171-7.993h29.592l.171,7.993h-.967a11.148,11.148,0,0,0-1.43-5.014A3.745,3.745,0,0,0,353.348,1.9a14.153,14.153,0,0,0-3.53-.3h-4.9v21.52a40.279,40.279,0,0,0,.168,4.7A2.384,2.384,0,0,0,346,29.479a5.066,5.066,0,0,0,2.788.54h1.484v1.034h-15.2V30.02h1.574a5.278,5.278,0,0,0,2.71-.5,2.294,2.294,0,0,0,.967-1.54,32.684,32.684,0,0,0,.213-4.868V1.6h-4.52a17.849,17.849,0,0,0-3.958.281,3.558,3.558,0,0,0-1.9,1.7A12.04,12.04,0,0,0,328.779,8.555Z"/></g><path class="1cb2fa6b-8f71-4efc-8301-d8bc07a94bb0" d="M111.077,45.75a5.565,5.565,0,0,1-.359,2.04,4.458,4.458,0,0,1-2.579,2.6,5.45,5.45,0,0,1-2.025.362h-3.76v-10h3.76a5.45,5.45,0,0,1,2.025.362,4.457,4.457,0,0,1,2.579,2.6A5.573,5.573,0,0,1,111.077,45.75Zm-1.519,0a4.893,4.893,0,0,0-.243-1.6,3.4,3.4,0,0,0-.692-1.2,2.959,2.959,0,0,0-1.087-.749,3.776,3.776,0,0,0-1.423-.257h-2.271v7.6h2.271a3.757,3.757,0,0,0,1.423-.258,2.959,2.959,0,0,0,1.087-.749,3.4,3.4,0,0,0,.692-1.193A4.888,4.888,0,0,0,109.559,45.75Z"/><path class="1cb2fa6b-8f71-4efc-8301-d8bc07a94bb0" d="M119.842,49.544l-.007,1.205h-6.2v-10h6.2v1.205h-4.707v3.167h3.788v1.163h-3.788v3.258Z"/><path class="1cb2fa6b-8f71-4efc-8301-d8bc07a94bb0" d="M123.858,41.956V45.3h4.011v1.2h-4.011v4.24h-1.489v-10h6.2v1.205Z"/><path class="1cb2fa6b-8f71-4efc-8301-d8bc07a94bb0" d="M132.429,50.749h-1.489v-10h1.489Z"/><path class="1cb2fa6b-8f71-4efc-8301-d8bc07a94bb0" d="M143.777,40.751v10h-.752a.606.606,0,0,1-.289-.062.857.857,0,0,1-.233-.2l-5.646-7.3c.01.126.018.249.024.369s.011.234.011.342v6.857h-1.3v-10h.766a.718.718,0,0,1,.292.046.63.63,0,0,1,.216.205l5.66,7.311c-.014-.135-.024-.266-.031-.394s-.01-.247-.01-.358v-6.81Z"/><path class="1cb2fa6b-8f71-4efc-8301-d8bc07a94bb0" d="M153.147,49.544l-.007,1.205h-6.2v-10h6.2v1.205h-4.707v3.167h3.788v1.163h-3.788v3.258Z"/><path class="1cb2fa6b-8f71-4efc-8301-d8bc07a94bb0" d="M164.4,45.75a5.565,5.565,0,0,1-.359,2.04,4.458,4.458,0,0,1-2.579,2.6,5.45,5.45,0,0,1-2.025.362h-3.76v-10h3.76a5.45,5.45,0,0,1,2.025.362,4.457,4.457,0,0,1,2.579,2.6A5.573,5.573,0,0,1,164.4,45.75Zm-1.519,0a4.893,4.893,0,0,0-.243-1.6,3.4,3.4,0,0,0-.692-1.2,2.959,2.959,0,0,0-1.087-.749,3.776,3.776,0,0,0-1.423-.257h-2.271v7.6h2.271a3.757,3.757,0,0,0,1.423-.258,2.959,2.959,0,0,0,1.087-.749,3.4,3.4,0,0,0,.692-1.193A4.888,4.888,0,0,0,162.879,45.75Z"/><path class="1cb2fa6b-8f71-4efc-8301-d8bc07a94bb0" d="M174.429,40.751a6.243,6.243,0,0,1,1.612.182,3.043,3.043,0,0,1,1.1.521,2.08,2.08,0,0,1,.637.825,2.79,2.79,0,0,1,.205,1.1,2.189,2.189,0,0,1-.111.7,2.019,2.019,0,0,1-.341.623,2.468,2.468,0,0,1-.578.519,3.347,3.347,0,0,1-.821.383q2.178.432,2.179,2.276a2.819,2.819,0,0,1-.236,1.167,2.557,2.557,0,0,1-.689.908,3.2,3.2,0,0,1-1.114.592,5,5,0,0,1-1.5.209h-3.6v-10Zm-1.775,1.163v3.272h1.706a2.509,2.509,0,0,0,1.626-.442,1.691,1.691,0,0,0,.024-2.44,2.6,2.6,0,0,0-1.581-.39Zm2.089,7.658a3.067,3.067,0,0,0,.964-.133,1.8,1.8,0,0,0,.655-.361,1.387,1.387,0,0,0,.372-.547,1.96,1.96,0,0,0,.118-.692,1.444,1.444,0,0,0-.515-1.173,2.462,2.462,0,0,0-1.595-.429h-2.089v3.335Z"/><path class="1cb2fa6b-8f71-4efc-8301-d8bc07a94bb0" d="M184.8,46.794v3.955h-1.476V46.794l-3.662-6.043h1.3a.491.491,0,0,1,.313.095.72.72,0,0,1,.194.247l2.173,3.738q.132.258.239.487t.192.452q.076-.223.177-.452t.233-.487l2.165-3.738a.9.9,0,0,1,.191-.233.449.449,0,0,1,.311-.108h1.309Z"/><path class="1cb2fa6b-8f71-4efc-8301-d8bc07a94bb0" d="M204.393,52.781h-1.226a1.471,1.471,0,0,1-.48-.072.972.972,0,0,1-.39-.269L200.611,50.6a5.631,5.631,0,0,1-3.686-.125,4.525,4.525,0,0,1-1.566-1.055,4.807,4.807,0,0,1-1.014-1.615,6.028,6.028,0,0,1,0-4.111,4.782,4.782,0,0,1,1.014-1.618,4.547,4.547,0,0,1,1.566-1.059,5.581,5.581,0,0,1,4.048,0,4.594,4.594,0,0,1,1.566,1.059,4.705,4.705,0,0,1,1.013,1.618,5.714,5.714,0,0,1,.359,2.054,5.955,5.955,0,0,1-.144,1.326,5.329,5.329,0,0,1-.407,1.173,4.491,4.491,0,0,1-.65.989,4.579,4.579,0,0,1-.874.779Zm-8.9-7.031a4.915,4.915,0,0,0,.243,1.6,3.374,3.374,0,0,0,.7,1.2,3,3,0,0,0,1.09.756,4.015,4.015,0,0,0,2.847,0,2.975,2.975,0,0,0,1.087-.756,3.411,3.411,0,0,0,.692-1.2,5.405,5.405,0,0,0,0-3.206,3.424,3.424,0,0,0-.692-1.2,3.018,3.018,0,0,0-1.087-.759,3.96,3.96,0,0,0-2.847,0,3.046,3.046,0,0,0-1.09.759,3.388,3.388,0,0,0-.7,1.2A4.93,4.93,0,0,0,195.5,45.75Z"/><path class="1cb2fa6b-8f71-4efc-8301-d8bc07a94bb0" d="M210.358,49.558a2.705,2.705,0,0,0,1.072-.2,2.251,2.251,0,0,0,.8-.567,2.535,2.535,0,0,0,.5-.87,3.407,3.407,0,0,0,.174-1.117V40.751h1.477V46.8a4.6,4.6,0,0,1-.278,1.622,3.734,3.734,0,0,1-.8,1.288,3.676,3.676,0,0,1-1.268.849,4.743,4.743,0,0,1-3.355,0,3.663,3.663,0,0,1-1.267-.849,3.705,3.705,0,0,1-.8-1.288,4.6,4.6,0,0,1-.278-1.622V40.751h1.482v6.043a3.489,3.489,0,0,0,.171,1.121,2.473,2.473,0,0,0,.5.874,2.251,2.251,0,0,0,.8.567A2.705,2.705,0,0,0,210.358,49.558Z"/><path class="1cb2fa6b-8f71-4efc-8301-d8bc07a94bb0" d="M225.668,50.749h-1.143a.5.5,0,0,1-.319-.1.547.547,0,0,1-.182-.251l-.884-2.318h-4.407L217.85,50.4a.559.559,0,0,1-.182.24.487.487,0,0,1-.32.108h-1.142l3.982-10h1.5Zm-2.932-3.725-1.482-3.878a8.443,8.443,0,0,1-.32-1q-.076.3-.157.558c-.053.171-.105.324-.156.459l-1.476,3.864Z"/><path class="1cb2fa6b-8f71-4efc-8301-d8bc07a94bb0" d="M233.333,49.5v1.246H227.61v-10h1.482V49.5Z"/><path class="1cb2fa6b-8f71-4efc-8301-d8bc07a94bb0" d="M236.967,50.749h-1.489v-10h1.489Z"/><path class="1cb2fa6b-8f71-4efc-8301-d8bc07a94bb0" d="M246.942,41.99h-3.175v8.759h-1.476V41.99H239.1V40.751h7.839Z"/><path class="1cb2fa6b-8f71-4efc-8301-d8bc07a94bb0" d="M252.972,46.794v3.955H251.5V46.794l-3.662-6.043h1.3a.491.491,0,0,1,.313.095.72.72,0,0,1,.194.247l2.173,3.738q.132.258.239.487t.192.452q.076-.223.177-.452t.233-.487l2.165-3.738a.9.9,0,0,1,.191-.233.449.449,0,0,1,.311-.108h1.309Z"/></svg>